<svg xmlns="http://www.w3.org/2000/svg" version="1.1" xmlns:xlink="http://www.w3.org/1999/xlink" xmlns:svgjs="http://svgjs.dev/svgjs" viewBox="0 0 800 800"><defs><linearGradient x1="50%" y1="0%" x2="50%" y2="100%" id="uundulate-grad"><stop stop-color="hsl(37, 99%, 67%)" stop-opacity="1" offset="45%"></stop><stop stop-color="hsl(316, 73%, 52%)" stop-opacity="1" offset="100%"></stop></linearGradient></defs><g stroke-width="2" stroke="url(#uundulate-grad)" fill="none"><path d="M667.601411672243 271.71848443374955C694.0126009771392 340.98400702497946 645.59356957718 517.2823712688516 587.5092344691566 563.3418280111332C529.4248993611332 609.4012847534148 474.00720998682414 504.2924031434875 388.7966031537312 492.80387679670116C303.58599632063806 481.3153504499146 229.7472585751491 551.615169789168 178.49832167031013 508.1969015465585C127.24938476547123 464.77863330394894 107.60266049749498 341.60306596947464 142.80170601050378 284.39618923217586C178.00075152351263 227.18931249487707 281.2175276754292 244.7557410531382 347.4537401327524 233.6038932075242C413.68995259007556 222.45204536191028 394.03809423492726 222.9267797344325 460.73552580565445 230.86731957322934C527.4329573763816 238.80785941202618 641.1902223673468 202.45296184251964 667.601411672243 271.71848443374955C694.0126009771392 340.98400702497946 645.59356957718 517.2823712688516 587.5092344691566 563.3418280111332 "></path><path d="M655.437712528849 277.54945894612706C680.6483932289773 343.6665486923011 634.4302268926526 511.95135092508826 578.9860888349939 555.9171959972659C523.5419507773352 599.8830410694438 470.6432472836766 499.55183589633157 389.3058498520878 488.5855152925809C307.96845242049903 477.61919468883013 237.48602093616864 544.7235676944811 188.5665811633678 503.27885709926284C139.64714139056696 461.8341465040447 120.89345004386234 344.2574685938647 154.49253894264353 289.650904435534C188.09162784142472 235.04434027720328 286.6167323500723 251.81229481008893 349.84220787751724 241.1673491392756C413.06768340496205 230.5224034684623 394.3090913386841 230.97555900586985 457.97482147437825 238.5551652156305C521.6405516100724 246.13477142539114 630.227031828721 211.4323691999531 655.437712528849 277.54945894612706C680.6483932289773 343.6665486923011 634.4302268926526 511.95135092508826 578.9860888349939 555.9171959972659 "></path><path d="M643.2740133854552 283.38043345850457C667.2841854808154 346.34909035962266 623.2668842081252 506.62033058132465 570.4629432008312 548.4925639833988C517.6590021935372 590.3647973854729 467.27928458052907 494.81126864917553 389.81509655044454 484.36715378846054C312.35090852035995 473.92303892774567 245.22478329718808 537.8319655997941 198.6348406564254 498.3608126519673C152.04489801566274 458.8896597041403 134.18423959022977 346.91187121825465 166.1833718747833 294.9056196388921C198.18250415933676 242.89936805952954 292.01593702471547 258.86884856703966 352.230675622282 248.73080507102702C412.44541421984854 238.59276157501432 394.5800884424409 239.02433827730727 455.21411714310204 246.24301085803165C515.8481458437632 253.46168343875604 619.2638412900951 220.41177655738647 643.2740133854552 283.38043345850457C667.2841854808154 346.34909035962266 623.2668842081252 506.62033058132465 570.4629432008312 548.4925639833988 "></path><path d="M631.1102989832723 289.21142322967114C653.9199624738644 349.0316472857333 612.1035262648088 501.2893254963502 561.9397823078795 541.0679472283206C511.7760383509501 580.846568960291 463.91530661859247 490.07071666080856 390.3243279900121 480.14880754312935C316.7333493614318 470.22689842545014 252.96353039941857 530.9403787638962 208.70308489069402 493.4427834634606C164.44263938196946 455.94518816302514 147.47501387780812 349.5662891014337 177.87418954813398 300.1603501010393C208.2733652184598 250.75441110064486 297.41512644056957 265.92541758277946 354.61912810825766 256.29427626156746C411.82312977594586 246.6631349403554 394.8510702874088 247.07313280753368 452.4533975530369 253.93087175922187C510.0557248186649 260.78861071091006 608.3006354926802 229.39119917360898 631.1102989832723 289.21142322967114C653.9199624738644 349.0316472857333 612.1035262648088 501.2893254963502 561.9397823078795 541.0679472283206 "></path><path d="M618.9466150986675 295.04239774204865C640.5557699844917 351.71418895305493 600.9401988390705 495.9583051525867 553.4166519325059 533.6433152144534C505.8931050259413 571.3283252763201 460.551359174234 485.3301494136525 390.83358994715786 475.930446039009C321.11582072008173 466.53074266436556 260.70230801922713 524.0487766692092 218.7713596425407 488.5247390161651C176.8404112658543 453.0007013631208 160.7658186829646 352.2206917258237 189.56503773906275 305.41506530439744C218.36425679516088 258.6094388829711 302.81434637400173 272.98197133973025 357.00761111181157 263.85773219331884C411.2008758496215 254.73349304690743 395.1220826499547 255.12191207897104 449.69270848054964 261.61871740162303C504.2633343111447 268.11552272427497 597.3374602128433 238.37060653104237 618.9466150986675 295.04239774204865C640.5557699844917 351.71418895305493 600.9401988390705 495.9583051525867 553.4166519325059 533.6433152144534 "></path><path d="M606.7829159552737 300.87337225442616C627.1915622363299 354.39673062037656 589.7768561545431 490.62728480882333 544.8935062983433 526.2186832005863C500.0101564421434 561.8100815923492 457.18739647108646 480.5895821664965 391.3428366455146 471.71208453488873C325.49827681994265 462.834586903281 268.44107038024663 517.1571745745223 228.83961913559835 483.60669456886944C189.23816789095008 450.0562145632166 174.05660822933203 354.87509435021377 201.2558706712025 310.66978050775555C228.45513311307297 266.4644666652974 308.21355104864483 280.038525096681 359.3960788565764 271.4211881250702C410.5786066645079 262.80385115345945 395.3930797537115 263.17069135040845 446.93200414927344 269.3065630440242C498.4709285448355 275.4424347376399 586.3742696742175 247.35001388847576 606.7829159552737 300.87337225442616C627.1915622363299 354.39673062037656 589.7768561545431 490.62728480882333 544.8935062983433 526.2186832005863 "></path><path d="M594.6192015530908 306.70434676680367C613.8273392293788 357.07927228769813 578.6134982112267 485.2962644650597 536.3703454053916 518.794051186719C494.12719259955634 552.2918379083783 453.82341850914975 475.84901491934033 391.8520680850821 467.4937230307685C329.8807176610145 459.1384311421965 276.17981748247706 510.2655724798353 238.9078633698669 478.6886501215738C201.63590925725674 447.1117277633123 187.3473825169104 357.5294969746037 212.9466883445532 315.9244957111137C238.545994172196 274.31949444762364 313.6127404644989 287.0950788536317 361.7845313425521 278.9846440568216C409.95632222060533 270.87420926001147 395.6640615986794 271.2194706218458 444.1712845592082 276.99440868642534C492.6785075197371 282.76934675100483 575.4110638768027 256.3294212459092 594.6192015530908 306.70434676680367C613.8273392293788 357.07927228769813 578.6134982112267 485.2962644650597 536.3703454053916 518.794051186719 "></path><path d="M582.455517668486 312.5353212791812C600.4631467400061 359.76181395501976 567.4501707854885 479.9652441212962 527.8472150300179 511.36941917285185C488.2442592745474 542.7735942244074 450.4594710647914 471.1084476721844 392.3613300422279 463.2753615266481C334.2631890196645 455.4422753811119 283.9185951022856 503.37397038514825 248.97613812171357 473.77060567427816C214.03368114114159 444.16724096340795 200.63818732206687 360.1838995989937 224.637536535482 321.1792109144718C248.6368857488971 282.1745222299499 319.01196039793115 294.1516326105825 364.173014346106 286.548099988573C409.3340682942809 278.9445673665635 395.93507396122527 279.26824989328315 441.41059548672115 284.68225432882645C486.8861170122168 290.0962587643698 564.4478885969659 265.3088286033426 582.455517668486 312.5353212791812C600.4631467400061 359.76181395501976 567.4501707854885 479.9652441212962 527.8472150300179 511.36941917285185 "></path><path d="M570.2918185250921 318.3662957915587C587.0989389918443 362.44435562234133 556.2868281009611 474.6342237775327 519.3240693958553 503.9447871589846C482.3613106907494 533.2553505404364 447.09550836164374 466.36788042502826 392.87057674058457 459.05700002252786C338.6456451195254 451.74611962002734 291.6573574633051 496.4823682904613 259.04439761477124 468.8525612269825C226.43143776623737 441.22275416350374 213.9289768684343 362.8383022233837 236.3283694676217 326.43392611782997C258.7277620668092 290.02955001227616 324.41116507257425 301.20818636753324 366.5614820908708 294.11155592032435C408.7117991091674 287.0149254731155 396.2060710649821 287.31702916472057 438.64989115544495 292.3700999712276C481.09371124590757 297.4231707777347 553.48469805834 274.28823596077603 570.2918185250921 318.3662957915587C587.0989389918443 362.44435562234133 556.2868281009611 474.6342237775327 519.3240693958553 503.9447871589846 "></path><path d="M558.1281193816983 324.1972703039362C573.7347312436823 365.12689728966296 545.1234854164338 469.3032034337692 510.80092376169273 496.5201551451174C476.4783621069515 523.7371068564655 443.7315456584962 461.62731317787234 393.3798234389413 454.8386385184076C343.0281012193863 448.0499638589429 299.3961198243246 489.59076619577434 269.11265710782885 463.9345167796869C238.82919439133315 438.2782673635994 227.2197664148017 365.4927048477737 248.01920239976147 331.6886413211881C268.8186383847212 297.8845777946024 329.8103697472174 308.264740124484 368.9499498356356 301.6750118520757C408.08952992405386 295.0852835796675 396.477068168739 295.3658084361579 435.88918682416875 300.05794561362876C475.30130547959834 304.75008279109966 542.5215075197141 283.2676433182094 558.1281193816983 324.1972703039362C573.7347312436823 365.12689728966296 545.1234854164338 469.3032034337692 510.80092376169273 496.5201551451174 "></path><path d="M545.9644202383045 330.02826007510276C560.3705234955205 367.8094542157736 533.9601427319064 463.9721983487948 502.2777781275299 489.09553839003934C470.5954135231535 514.2188784312837 440.36758295534867 456.88676118950525 393.88907013729795 450.6202922730763C347.41055731924723 444.35382335664735 307.1348821853441 482.69917935987644 279.1809166008865 459.0164875911803C251.22695101642893 435.3337958224842 240.51055596116913 368.1471227309528 259.7100353319012 336.9433717833353C278.9095147026333 305.73962083571774 335.2095744218605 315.32130914022383 371.33841758040046 309.2384830426162C407.46726073894035 303.15565694500856 396.74806527249586 303.41460296638434 433.12848249289254 307.745806514819C469.5088997132891 312.0770100632536 531.5583169810883 292.2470659344319 545.9644202383045 330.02826007510276C560.3705234955205 367.8094542157736 533.9601427319064 463.9721983487948 502.2777781275299 489.09553839003934 "></path><path d="M533.8007210949106 335.85924984626934C547.0063157473587 370.4920111418843 522.7968000473791 458.64119326382036 493.75463249336735 481.67092163496113C464.71246493935564 504.7006500061019 437.00362025220113 452.1462092011383 394.39831683565467 446.4019460277451C351.7930134191081 440.65768285435183 314.8736445463636 475.80759252397854 289.24917609394413 454.0984584026737C263.62470764152465 432.389324281369 253.80134550753655 370.80154061413185 271.400868264041 342.19810224548246C289.0003910205454 313.59466387683307 340.60877909650367 322.37787815596363 373.72688532516526 316.80195423315666C406.84499155382684 311.22603031034964 397.0190623762527 311.4633974966108 430.3677781616163 315.4336674160092C463.7164939469799 319.40393733540765 520.5951264424625 301.2264885506544 533.8007210949106 335.85924984626934C547.0063157473587 370.4920111418843 522.7968000473791 458.64119326382036 493.75463249336735 481.67092163496113 "></path><path d="M521.6370219515167 341.6902090998578C533.6421079991967 373.1745375504168 511.6334573628517 453.3101576612678 485.23148685920467 474.2462743623048C458.82951635555764 495.1823910633419 433.6396575490536 447.40562669519323 394.90756353401133 442.18356926483574C356.17546951896907 436.9615118344783 322.6124069073831 468.9159751705025 299.3174355870018 449.1803986965891C276.02246426662043 429.4448222226756 267.092135053904 373.4559279797328 283.0917011961807 347.4528021900515C299.09126733845744 321.44967640037027 346.00798377114677 329.4344166541253 376.11535306993005 324.365394906119C406.22272236871333 319.2963731581126 397.2900594800095 319.5121615092591 427.6070738303401 323.1214977996213C457.92408818067065 326.7308340899835 509.6319359038366 310.2058806492987 521.6370219515167 341.6902090998578C533.6421079991967 373.1745375504168 511.6334573628517 453.3101576612678 485.23148685920467 474.2462743623048 "></path><path d="M509.4733228081228 347.5211836122353C520.2779002510349 375.8570792177384 500.4701146783243 447.9791373175043 476.708341225042 466.82164234843765C452.9465677717597 485.664147379371 430.27569484590606 442.6650594480372 395.416810232368 437.96520776071543C360.5579256188299 433.2653560733937 330.3511692684026 462.02437307581556 309.3856950800594 444.2623542492935C288.4202208917162 426.50033542277134 280.3829246002714 376.1103306041228 294.78253412832044 352.70751739340966C309.18214365636953 329.3047041826965 351.4071884457899 336.49097041107603 378.50382081469485 331.92885083787036C405.6004531835998 327.3667312646646 397.5610565837664 327.56094078069646 424.8463694990639 330.80934344202245C452.1316824143614 334.05774610334845 498.6687453652107 319.1852880067321 509.4733228081228 347.5211836122353C520.2779002510349 375.8570792177384 500.4701146783243 447.9791373175043 476.708341225042 466.82164234843765 "></path><path d="M497.309623664729 353.3521733834018C506.913692502873 378.53963614384907 489.30677199379693 442.64813223252986 468.1851955908794 459.3970255933595C447.06361918796176 476.14591895418914 426.91173214275847 437.92450745967017 395.92605693072466 433.74686151538424C364.94038171869084 429.56921557109825 338.0899316294221 455.13278623991766 319.4539545731171 439.3443250607869C300.817977516812 423.55586388165614 293.6737141466388 378.76474848730186 306.4733670604602 357.9622478555568C319.27301997428157 337.15974722381185 356.8063931204331 343.5475394268159 380.89228855945964 339.4923220284108C404.97818399848626 335.4371046300057 397.8320536875233 335.6097353109229 422.0856651677877 338.4972043432127C446.33927664805213 341.3846733755024 487.70555482658494 328.1647106229546 497.309623664729 353.3521733834018C506.913692502873 378.53963614384907 489.30677199379693 442.64813223252986 468.1851955908794 459.3970255933595 "></path><path d="M485.14592452133513 359.1831478957793C493.5494847547112 381.2221778111707 478.1434293092696 437.31711188876636 459.6620499567167 451.9723935794923C441.18067060416377 466.6276752702182 423.54776943961093 433.18394021251413 396.4353036290813 429.52850001126393C369.32283781855176 425.8730598100137 345.8286939904416 448.24118414523065 329.5222140661747 434.42628061349126C313.2157341419077 420.61137708175187 306.9645036930062 381.41915111169186 318.16419999259995 363.216963058915C329.36389629219366 345.01477500613805 362.2055977950762 350.6040931837666 383.2807563042245 347.0557779601622C404.35591481337275 343.5074627365577 398.1030507912801 343.6585145823603 419.32496083651154 346.18504998561383C440.54687088174285 348.7115853888674 476.74236428795905 337.144117980388 485.14592452133513 359.1831478957793C493.5494847547112 381.2221778111707 478.1434293092696 437.31711188876636 459.6620499567167 451.9723935794923 "></path><path d="M472.9822101191522 365.0141224081568C480.18526174776025 383.90471947849227 466.9800713659532 431.98609154500286 451.13888906376496 444.54776156562514C435.29770676157676 457.1094315862473 420.18379147767433 428.4433729653581 396.944535068649 425.3101385071436C373.7052786596236 422.17690404892915 353.5674410926721 441.3495820505437 339.59045830044323 429.5082361661956C325.61347550821444 417.6668902818476 320.25527798058454 384.07355373608186 329.8550176659506 368.4716782622731C339.45475735131663 352.8698027884643 367.6047872109303 357.66064694071736 385.66920879020023 354.61923389191355C403.7336303694702 351.57782084310975 398.37403263624793 351.70729385379764 416.5642412464463 353.872895628015C434.75444985664456 356.0384974022323 465.77915849054415 346.12352533782143 472.9822101191522 365.0141224081568C480.18526174776025 383.90471947849227 466.9800713659532 431.98609154500286 451.13888906376496 444.54776156562514 "></path><path d="M460.81851097575833 370.84509692053433C466.82105399959835 386.5872611458139 455.81672868142584 426.65507120123937 442.61574342960233 437.12312955175787C429.4147581777788 447.59118790227643 416.8198287745268 423.70280571820206 397.45378176700564 421.09177700302337C378.08773475948453 418.4807482878446 361.3062034536916 434.45797995585673 349.6587177935009 424.59019171890003C338.0112321333102 414.7224034819433 333.54606752695196 386.72795636047186 341.54585059809034 373.72639346563125C349.5456336692287 360.7248305707906 373.0039918855734 364.71720069766815 388.057676534965 362.18268982366493C403.11136118435667 359.64817894966177 398.64502974000476 359.756073125235 413.80353691517007 361.5607412704161C428.9620440903353 363.36540941559724 454.8159679519183 355.1029326952548 460.81851097575833 370.84509692053433C466.82105399959835 386.5872611458139 455.81672868142584 426.65507120123937 442.61574342960233 437.12312955175787 "></path><path d="M448.6548118323645 376.67610195048997C453.4568462514365 389.2698333307136 444.65338599689846 421.324081375054 434.0925977954397 429.69852805546884C423.5318095939809 438.07297473588363 413.45586607137926 418.96226898862415 397.96302846536236 416.8734460164812C382.4701908593454 414.78462304433816 369.0449658147111 427.5664083787479 359.7269772865585 419.6721777891825C350.408988758406 411.77794719961713 346.8368570733194 389.38238950244 353.2366835302301 378.9811391865675C359.6365099871408 368.57988887069496 378.40319656021654 371.773784972197 390.4461442797298 369.7461762729945C402.48909199924316 367.7185675737919 398.91602684376164 367.8048829142505 411.04283258389387 369.24861743039537C423.1696383240261 370.69235194654027 443.8527774132925 364.08237057026633 448.6548118323645 376.67610195048997C453.4568462514365 389.2698333307136 444.65338599689846 421.324081375054 434.0925977954397 429.69852805546884 "></path><path d="M436.49111268897065 382.5070612040784C440.09263850327466 391.95235973924616 433.49004331237114 415.99304577250143 425.569452161277 422.27388078281257C417.64886101018294 428.55471579312365 410.09190336823167 414.22168648267905 398.472275163719 412.6550692535718C386.8526469592063 411.0884520244646 376.7837281757306 420.6747910252718 369.7952367796162 414.7541180830978C362.8067453835018 408.8334451409238 360.1276466196868 392.03677686804093 364.92751646236985 384.2358391311366C369.72738630505285 376.43490139423216 383.80240123485964 378.8303234703587 392.8346120244946 377.3096169459568C401.8668228141296 375.7889104215549 399.18702394751847 375.8536469268988 408.28212825261767 376.93644781400747C417.3772325577168 378.01924870111617 432.88958687466663 373.0617626689107 436.49111268897065 382.5070612040784C440.09263850327466 391.95235973924616 433.49004331237114 415.99304577250143 425.569452161277 422.27388078281257 "></path><path d="M424.3273982867877 388.3380357164559C426.72841549632375 394.63490140656774 422.3266853690547 410.66202542873793 417.0462912683253 414.84924876894536C411.7658971675959 419.0364721091528 406.72792540629507 409.481119235523 398.9815066032866 408.4367077494515C391.23508780027817 407.39229626338005 384.522475277961 413.78318893058486 379.8634810138847 409.8360736358022C375.20448674980844 405.8889583410195 373.41842090726516 394.69117949243093 376.6183341357205 389.4905543344947C379.8182473641759 384.2899291765584 389.20159065071374 385.8868772273094 395.2230645104704 384.8730728777082C401.244538370227 383.8592685281069 399.4580057924863 383.9024261983362 405.5214086625524 384.6242934564086C411.5848115326185 385.3461607144811 421.9263810772517 382.0411700263441 424.3273982867877 388.3380357164559C426.72841549632375 394.63490140656774 422.3266853690547 410.66202542873793 417.0462912683253 414.84924876894536 "></path><path d="M412.16369914339384 394.16901022883343C413.36420774816185 397.3174430738893 411.1633426845274 405.33100508497444 408.52314563416263 407.42461675507815C405.88294858379794 409.51822842518186 403.36396270314754 404.740551988367 399.49075330164334 404.21834624533125C395.6175439001391 403.69614050229546 392.2612376389805 406.8915868358979 389.9317405069424 404.9180291885066C387.6022433749042 402.9444715411152 386.7092104536326 397.34558211682094 388.30916706786024 394.74526953785283C389.9091236820879 392.1449569588847 394.60079532535684 392.9434309842602 397.6115322552352 392.43652880945956C400.6222691851135 391.9296266346589 399.7290028962431 391.9512054697736 402.7607043312762 392.3121390988098C405.79240576630923 392.67307272784603 410.96319053862584 391.02057738377755 412.16369914339384 394.16901022883343C413.36420774816185 397.3174430738893 411.1633426845274 405.33100508497444 408.52314563416263 407.42461675507815 "></path></g></svg>